<svg xmlns="http://www.w3.org/2000/svg" width="24.447" height="30.102" viewBox="0 0 24.447 30.102">
  <g id="location" transform="translate(-89.016 -50.387)">
    <path id="Path_2451" data-name="Path 2451" d="M92.553,71.473l8.313,8.854a.512.512,0,0,0,.747,0l8.312-8.854a12.973,12.973,0,0,0,2.785-4.42,12.05,12.05,0,0,0,.728-4.96,12.782,12.782,0,0,0-3.691-8.174,12.014,12.014,0,0,0-17.016,0,12.782,12.782,0,0,0-3.691,8.174,12.05,12.05,0,0,0,.728,4.96A12.973,12.973,0,0,0,92.553,71.473Zm-2.49-9.312a11.757,11.757,0,0,1,3.394-7.519,10.989,10.989,0,0,1,15.564,0,11.757,11.757,0,0,1,3.394,7.519,11.033,11.033,0,0,1-.668,4.541,11.955,11.955,0,0,1-2.569,4.07l-7.939,8.456L93.3,70.772a11.957,11.957,0,0,1-2.569-4.07A11.031,11.031,0,0,1,90.063,62.161Z" transform="translate(0 0)" fill="#102976"/>
    <path id="Path_2452" data-name="Path 2452" d="M148.564,107.4a8.7,8.7,0,1,0-8.486-8.7A8.6,8.6,0,0,0,148.564,107.4Zm0-16.375A7.678,7.678,0,1,1,141.1,98.7,7.579,7.579,0,0,1,148.564,91.025Z" transform="translate(-47.324 -36.713)" fill="#102976"/>
    <path id="Path_2453" data-name="Path 2453" d="M201.8,176.71a.512.512,0,0,0,.716.008l4.671-4.461a.512.512,0,1,0-.708-.741l-4.308,4.115-2.3-2.3a.512.512,0,0,0-.725.725Z" transform="translate(-101.933 -112.131)" fill="#102976"/>
  </g>
</svg>
