<svg xmlns="http://www.w3.org/2000/svg" width="24.447" height="24.445" viewBox="0 0 24.447 24.445">
  <g id="Group_21" data-name="Group 21" transform="translate(0 0)">
    <g id="Group_20" data-name="Group 20" transform="translate(0 0)">
      <path id="Path_2445" data-name="Path 2445" d="M24.447,9.384c0-.009,0-.016,0-.024a.389.389,0,0,0-.017-.083.421.421,0,0,0-.023-.07.393.393,0,0,0-.041-.061.4.4,0,0,0-.055-.064c-.007-.006-.009-.013-.016-.019L20.373,6.019V2.865a1.222,1.222,0,0,0-1.222-1.222H14.735L12.967.27a1.209,1.209,0,0,0-1.486,0L9.713,1.643H5.3A1.222,1.222,0,0,0,4.075,2.865V6.019L.158,9.063c-.007.005-.01.013-.016.019a.4.4,0,0,0-.055.064.39.39,0,0,0-.041.061.4.4,0,0,0-.023.07.386.386,0,0,0-.017.082c0,.008,0,.015,0,.024V23.238a1.208,1.208,0,0,0,.068.385.4.4,0,0,0,.448.611,1.214,1.214,0,0,0,.706.226h22a1.214,1.214,0,0,0,.708-.229.4.4,0,0,0,.447-.608,1.209,1.209,0,0,0,.068-.385V9.384ZM11.979.913a.391.391,0,0,1,.486,0l.94.73H11.042ZM1.324,23.645,11.98,15.368a.392.392,0,0,1,.486,0l10.659,8.277Zm22.309-.636L12.966,14.725a1.208,1.208,0,0,0-1.485,0L.815,23.009V10L7.492,15.19a.408.408,0,0,0,.5-.644L1.209,9.278,4.075,7.051V10.2a.407.407,0,1,0,.815,0V2.865A.407.407,0,0,1,5.3,2.458H19.151a.407.407,0,0,1,.407.407V10.2a.407.407,0,1,0,.815,0V7.051l2.866,2.227-6.8,5.277a.408.408,0,0,0,.5.644l6.689-5.194Z" transform="translate(-0.001 -0.015)" fill="#102976"/>
      <path id="Path_2446" data-name="Path 2446" d="M162.532,94.659h8.149a.407.407,0,0,0,0-.815h-8.149a.407.407,0,0,0,0,.815Z" transform="translate(-154.384 -89.364)" fill="#102976"/>
      <path id="Path_2447" data-name="Path 2447" d="M171.089,145.451a.407.407,0,0,0-.407-.407h-8.149a.407.407,0,0,0,0,.815h8.149A.407.407,0,0,0,171.089,145.451Z" transform="translate(-154.384 -138.119)" fill="#102976"/>
      <path id="Path_2448" data-name="Path 2448" d="M260.474,196.651a.407.407,0,0,0-.407-.407H256.4a.407.407,0,1,0,0,.815h3.667A.407.407,0,0,0,260.474,196.651Z" transform="translate(-243.769 -186.874)" fill="#102976"/>
    </g>
  </g>
</svg>
