<svg xmlns="http://www.w3.org/2000/svg" width="23.968" height="23.963" viewBox="0 0 23.968 23.963">
  <g id="phone-call" transform="translate(0 -0.003)">
    <g id="Group_22" data-name="Group 22" transform="translate(0 0.003)">
      <path id="Path_2454" data-name="Path 2454" d="M19.26,23.966a10.3,10.3,0,0,1-3.525-.749,26.457,26.457,0,0,1-8.894-6.091A26.454,26.454,0,0,1,.75,8.23c-1-2.64-1-4.806-.008-5.8.143-.143.289-.3.439-.454C2.086,1.027,3.133-.053,4.464.005A3.937,3.937,0,0,1,7.232,1.777C9.97,5.183,8.736,6.4,7.307,7.8l-.253.25c-.234.234-.676,1.315,3.434,5.425a22.873,22.873,0,0,0,3.4,2.918c.576.374,1.6.938,2.026.517l.254-.256c1.406-1.427,2.62-2.657,6.024.08A3.928,3.928,0,0,1,23.963,19.5c.056,1.356-1.024,2.381-1.977,3.285-.156.149-.31.293-.451.435A3.145,3.145,0,0,1,19.26,23.966ZM4.368.808c-.962,0-1.833.916-2.6,1.725-.156.163-.306.322-.454.469C.573,3.74.649,5.681,1.5,7.946a25.651,25.651,0,0,0,5.907,8.611,25.651,25.651,0,0,0,8.609,5.907c2.266.855,4.207.929,4.945.19.148-.147.3-.3.466-.45.829-.787,1.768-1.679,1.727-2.669a3.258,3.258,0,0,0-1.472-2.172c-2.837-2.279-3.63-1.473-4.945-.142l-.258.26c-.626.63-1.648.492-3.035-.411a23.632,23.632,0,0,1-3.53-3.023h0c-3.41-3.41-4.5-5.5-3.434-6.565l.257-.255C8.078,5.912,8.884,5.118,6.6,2.281A3.268,3.268,0,0,0,4.431.81Z" transform="translate(0 -0.003)" fill="#102976"/>
    </g>
    <g id="Group_23" data-name="Group 23" transform="translate(12.323 0.008)">
      <path id="Path_2455" data-name="Path 2455" d="M22.752,10.842a.4.4,0,0,1-.373-.554,3.388,3.388,0,0,0-4.536-4.361.4.4,0,1,1-.332-.733,4.194,4.194,0,0,1,5.614,5.4A.4.4,0,0,1,22.752,10.842Z" transform="translate(-15.674 -0.943)" fill="#102976"/>
      <path id="Path_2456" data-name="Path 2456" d="M25.965,11.368a.4.4,0,0,1-.373-.554,7.272,7.272,0,0,0-9.734-9.36.4.4,0,0,1-.332-.736,8.078,8.078,0,0,1,10.812,10.4A.4.4,0,0,1,25.965,11.368Z" transform="translate(-15.289 -0.009)" fill="#102976"/>
    </g>
  </g>
</svg>
