<svg xmlns="http://www.w3.org/2000/svg" xmlns:xlink="http://www.w3.org/1999/xlink" width="94.3" height="27.266" viewBox="0 0 94.3 27.266">
  <defs>
    <linearGradient id="linear-gradient" x1="0.067" x2="0.956" y2="1.129" gradientUnits="objectBoundingBox">
      <stop offset="0" stop-color="#0ab3e4"/>
      <stop offset="1" stop-color="#102976"/>
    </linearGradient>
  </defs>
  <path id="Intersection_1" data-name="Intersection 1" d="M127.822,84.18a3.894,3.894,0,0,1-1.147-2.87,3.743,3.743,0,0,1,1.147-2.849,4.227,4.227,0,0,1,5.658,0,3.741,3.741,0,0,1,1.148,2.849,3.891,3.891,0,0,1-1.148,2.87,4.059,4.059,0,0,1-5.658,0ZM61.566,82.827q-2.542-2.5-2.543-7.421V62.942h6.4V74.463q0,5.33,4.468,5.33a4.8,4.8,0,0,0,3.69-1.5,6.311,6.311,0,0,0,1.394-4.449V62.942h6.4V85H75.3V82.376a8.487,8.487,0,0,1-3.034,2.193,9.543,9.543,0,0,1-3.813.759A9.392,9.392,0,0,1,61.566,82.827Zm-15.683.492a7.686,7.686,0,0,1-2.153-5.9V68.354h-3.4v-4.92h3.4V58.063h6.4v5.371h5.494v4.92H50.127v8.979a3.009,3.009,0,0,0,.717,2.152,2.658,2.658,0,0,0,2.029.759,4.113,4.113,0,0,0,2.583-.82l1.722,4.51a6.569,6.569,0,0,1-2.317,1.046,11.715,11.715,0,0,1-2.89.348A8.587,8.587,0,0,1,45.884,83.319ZM117.695,85V73.356a5.753,5.753,0,0,0-1.147-3.916,4.211,4.211,0,0,0-3.321-1.291,5.09,5.09,0,0,0-3.855,1.5,6.2,6.2,0,0,0-1.435,4.449V85h-6.4V62.942h6.109v2.583a8.485,8.485,0,0,1,3.157-2.153,11,11,0,0,1,4.141-.759,9.078,9.078,0,0,1,6.621,2.46q2.522,2.461,2.522,7.3V85ZM85.674,85V62.942h6.109v2.911a7.117,7.117,0,0,1,3.1-2.419,11.492,11.492,0,0,1,4.489-.82v5.9q-1.066-.082-1.436-.082a5.863,5.863,0,0,0-4.3,1.537,6.216,6.216,0,0,0-1.558,4.613V85Z" transform="translate(-40.328 -58.063)" fill="url(#linear-gradient)"/>
</svg>
