<svg xmlns="http://www.w3.org/2000/svg" width="96.154" height="39.52" viewBox="0 0 96.154 39.52">
  <g id="BBQ" transform="translate(-1259.391 -4127.881)">
    <path id="Path_2460" data-name="Path 2460" d="M35.684-21.328q0,2.871-3.027,5.371a28.9,28.9,0,0,1-5.527,3.32,9.589,9.589,0,0,1,1.5,4.707q0,4.355-5.625,6.445A27.036,27.036,0,0,1,13.633,0H3.477l7.051-20.039h7.031l-6,16.914h1a18.583,18.583,0,0,0,5.781-.781q3.5-1.191,3.5-3.887a3.991,3.991,0,0,0-.781-2.061,3.935,3.935,0,0,1-.781-1.748,1.371,1.371,0,0,1,.039-.391,4.21,4.21,0,0,1,2.129-1.68A16.048,16.048,0,0,0,25.957-15.8a4.845,4.845,0,0,0,1.875-3.75q0-3.008-4.59-3.008H.391L3.4-27.48H26.191A14.641,14.641,0,0,1,32.93-26.27,5.17,5.17,0,0,1,35.684-21.328Zm32.13,0q0,2.871-3.027,5.371a28.9,28.9,0,0,1-5.527,3.32,9.589,9.589,0,0,1,1.5,4.707q0,4.355-5.625,6.445A27.036,27.036,0,0,1,45.763,0H35.606l7.051-20.039h7.031l-6,16.914h1a18.583,18.583,0,0,0,5.781-.781q3.5-1.191,3.5-3.887a3.991,3.991,0,0,0-.781-2.061A3.935,3.935,0,0,1,52.4-11.6a1.371,1.371,0,0,1,.039-.391,4.21,4.21,0,0,1,2.129-1.68A16.048,16.048,0,0,0,58.087-15.8a4.845,4.845,0,0,0,1.875-3.75q0-3.008-4.59-3.008H32.52l3.008-4.922H58.321a14.641,14.641,0,0,1,6.738,1.211A5.17,5.17,0,0,1,67.813-21.328Zm28.731,18.2Q95.763,0,91.74,0H64.259q1.895-4.766,4.316-4.766a2.81,2.81,0,0,1,.645.078l6.523,1.563q2.5,0,5.684-2.715a17.882,17.882,0,0,0,4.512-5.645,14,14,0,0,0,1.641-6.094,6.373,6.373,0,0,0-2.148-5.059,6.91,6.91,0,0,0-4.727-1.68,7.992,7.992,0,0,0-4.687,1.348,4.8,4.8,0,0,0-2.148,4.121,5.185,5.185,0,0,1,3.984-1.719,5.31,5.31,0,0,1,3.691,1.377,4.308,4.308,0,0,1,1.523,3.311,4.252,4.252,0,0,1-1.641,3.4,5.361,5.361,0,0,1-3.574,1.289,7.237,7.237,0,0,1-5.762-2.48,8.228,8.228,0,0,1-1.953-5.566,8.153,8.153,0,0,1,3.047-6.387q3.418-2.969,9.277-2.969,6.426,0,9.863,3.125a9.445,9.445,0,0,1,3.047,7.3,14,14,0,0,1-3.613,9.2,17.129,17.129,0,0,1-9.824,5.84Z" transform="translate(1259 4167.401)" fill="#0ab3e4"/>
    <path id="Path_2459" data-name="Path 2459" d="M8.592-8.4V0H7.308L2.676-5.688V0H1.128V-8.4H2.412L7.044-2.712V-8.4Zm8.556,7.092V0h-6.3V-8.4H16.98v1.308H12.408v2.184h4.056v1.284H12.408v2.316ZM31.044-8.4,28.26,0H26.6L24.528-6.216,22.416,0H20.748L17.964-8.4h1.62l2.088,6.384L23.844-8.4h1.44l2.124,6.42L29.556-8.4ZM34.92.12a6.408,6.408,0,0,1-1.878-.276,3.919,3.919,0,0,1-1.434-.732l.54-1.212a4.254,4.254,0,0,0,1.266.666,4.6,4.6,0,0,0,1.506.258,2.6,2.6,0,0,0,1.4-.3.909.909,0,0,0,.462-.792.767.767,0,0,0-.258-.594,1.811,1.811,0,0,0-.654-.366q-.4-.132-1.08-.3a12.589,12.589,0,0,1-1.554-.456,2.557,2.557,0,0,1-1.02-.714,1.923,1.923,0,0,1-.426-1.314,2.241,2.241,0,0,1,.378-1.266,2.558,2.558,0,0,1,1.14-.906,4.619,4.619,0,0,1,1.866-.336,6.027,6.027,0,0,1,1.512.192,4.179,4.179,0,0,1,1.284.552l-.492,1.212a4.854,4.854,0,0,0-1.152-.492,4.309,4.309,0,0,0-1.164-.168,2.432,2.432,0,0,0-1.374.312.962.962,0,0,0-.45.828.749.749,0,0,0,.258.588,1.864,1.864,0,0,0,.654.36q.4.132,1.08.3a11.365,11.365,0,0,1,1.536.45,2.63,2.63,0,0,1,1.026.714,1.882,1.882,0,0,1,.426,1.3,2.213,2.213,0,0,1-.378,1.26,2.571,2.571,0,0,1-1.146.9A4.662,4.662,0,0,1,34.92.12ZM50.892,0,50.88-5.568,48.12-.96h-.7L44.664-5.5V0H43.176V-8.4H44.46L47.8-2.832,51.072-8.4h1.284L52.368,0ZM60.936-1.308V0h-6.3V-8.4h6.132v1.308H56.2v2.184h4.056v1.284H56.2v2.316ZM62.676-8.4h3.672a5.269,5.269,0,0,1,2.388.522A3.863,3.863,0,0,1,70.356-6.4a4.176,4.176,0,0,1,.576,2.2A4.176,4.176,0,0,1,70.356-2a3.863,3.863,0,0,1-1.62,1.476A5.269,5.269,0,0,1,66.348,0H62.676Zm3.6,7.08A3.565,3.565,0,0,0,67.9-1.674a2.533,2.533,0,0,0,1.08-1.008A2.979,2.979,0,0,0,69.36-4.2a2.979,2.979,0,0,0-.378-1.518A2.533,2.533,0,0,0,67.9-6.726a3.565,3.565,0,0,0-1.626-.354h-2.04v5.76ZM72.588-8.4h1.56V0h-1.56Zm9.276,6.456h-4.2L76.836,0H75.228l3.78-8.4h1.536L84.336,0H82.7Zm-.516-1.224L79.764-6.84,78.192-3.168Z" transform="translate(1263 4136.401)" fill="#0ab3e4"/>
  </g>
</svg>
