<svg xmlns="http://www.w3.org/2000/svg" width="154.188" height="46.412" viewBox="0 0 154.188 46.412">
  <g id="Blue_studio" data-name="Blue studio" transform="translate(-708.297 -4129.025)">
    <path id="Path_2462" data-name="Path 2462" d="M11.016-20l.566-.137q.117,0,.117.225t-.674.732a2.616,2.616,0,0,1-1.621.508,1.986,1.986,0,0,1-1.484-.547,1.948,1.948,0,0,1-.537-1.426q0-1.855,2.422-3.682a19.425,19.425,0,0,1,5.957-2.93,22.727,22.727,0,0,1,6.777-1.1q4.746,0,7.061,1.543a4.753,4.753,0,0,1,2.314,4.141q0,3.32-4.609,6.426a22.374,22.374,0,0,1-5.234,2.617,8.474,8.474,0,0,1,4.922,1.992,4.1,4.1,0,0,1,1.387,3.184,5.908,5.908,0,0,1-1.846,3.936A14.179,14.179,0,0,1,21.621-1.2,15.731,15.731,0,0,1,15.352.117Q11.66.117,9.922-1.5a2.014,2.014,0,0,1-.781-1.318,2.955,2.955,0,0,1,.293-1.221Q8.008-1.465,7.344-.156A1.19,1.19,0,0,1,6.162.43,1.908,1.908,0,0,1,4.785-.039,1.431,1.431,0,0,1,4.3-1.094a2.827,2.827,0,0,1,.176-1.035q.879-2.3,6.2-10.791t6.514-9.834q.625-.762,2.832-.762.879,0,.879.391a34.884,34.884,0,0,1-2.6,4.395q-2.6,4.1-2.715,4.3a36.053,36.053,0,0,0,5.557-2.139A24.819,24.819,0,0,0,26.1-19.648q2.119-1.719,2.119-3.105,0-2.285-4.961-2.285a19.838,19.838,0,0,0-10,2.754,10.7,10.7,0,0,0-1.816,1.25q-.625.566-.625.8T11.016-20Zm3.516,9.336q-.352,0-.781-.82-1.855,2.969-3.887,6.6a3.1,3.1,0,0,1,2.676-1.27q1.172,0,1.172.293,0,.117-.254.215-.781.293-.781.879,0,1.406,2.988,1.406a10.977,10.977,0,0,0,7.324-2.812q1.758-1.484,1.758-2.6,0-.684-1.426-1.5a10.8,10.8,0,0,0-5.059-.918,10.468,10.468,0,0,0-3.027.264Q14.57-10.664,14.531-10.664ZM43.946-29.316a2.606,2.606,0,0,1,1.65.557,1.966,1.966,0,0,1,.713,1.65A8.744,8.744,0,0,1,45.1-23.682a42.623,42.623,0,0,1-2.91,4.766q-1.7,2.432-3.848,5.166-3.4,4.336-6.523,7.793a7.465,7.465,0,0,1-.166.869A5.672,5.672,0,0,0,31.5-3.809a1.519,1.519,0,0,0,.6,1.162,2.169,2.169,0,0,0,1.475.518,3.611,3.611,0,0,0,1.885-.625,9.214,9.214,0,0,0,1.748-1.387q1.953-2.012,2.422-2.012T40.1-4.727v.391a1.817,1.817,0,0,1-.273,1.113,10.842,10.842,0,0,1-3.691,3,8.987,8.987,0,0,1-3.887.986A3.466,3.466,0,0,1,29.454-.361,4.591,4.591,0,0,1,28.5-3.437a24.906,24.906,0,0,1,2.041-8.955,41.811,41.811,0,0,1,4.6-8.76Q40.9-29.316,43.946-29.316Zm-.879,3.242q0-.293-.2-.293-.684,0-3.594,3.906a61.568,61.568,0,0,0-4.209,6.23,33.489,33.489,0,0,0-2.451,5.84q2.3-2.734,6.377-8.525T43.067-26.074ZM53.81-6.133q.371,0,.449.566a8.571,8.571,0,0,1,.078,1.172,2.079,2.079,0,0,1-.117.84A9.818,9.818,0,0,1,51.74-.889,5.853,5.853,0,0,1,48.107.684,3.316,3.316,0,0,1,46.154.049a2.529,2.529,0,0,1-.9-2.217,6.364,6.364,0,0,1,.84-3.105Q41.252.8,38.5.8A2.222,2.222,0,0,1,36.73.02a2.453,2.453,0,0,1-.674-1.611,6.731,6.731,0,0,1,.234-1.719,16.653,16.653,0,0,1,.5-1.592,18.816,18.816,0,0,1,.781-1.738q.518-1.035.771-1.5t.811-1.416q.557-.947,1.465-2.549a21.379,21.379,0,0,1,1.5-2.373,1.632,1.632,0,0,1,1.162-.781,1.283,1.283,0,0,1,1,.459,1.31,1.31,0,0,1,.43.762A13.87,13.87,0,0,1,43.4-11.406q-3.867,6.992-3.867,8.145,0,.293.215.293.938,0,4.668-4.062a37.091,37.091,0,0,0,4.316-5.205,15.649,15.649,0,0,1,1.143-1.924,4.134,4.134,0,0,1,.83-.957,4.138,4.138,0,0,1,2.168-.586,2.15,2.15,0,0,1,.332.02q.117.02.273.332a1.2,1.2,0,0,1,.156.488,23.737,23.737,0,0,1-1.553,2.91Q50.7-9.59,50.548-9.277q-2.3,4.766-2.3,6.211,0,.82.625.82A5.369,5.369,0,0,0,51.6-4.062q.586-.605,1.162-1.23a10.1,10.1,0,0,1,.713-.732A.521.521,0,0,1,53.81-6.133Zm11.915-8.477a3.015,3.015,0,0,1-1.045,2.266,3.382,3.382,0,0,1-2.373.977.641.641,0,0,1-.566-.205.952.952,0,0,1-.137-.537,2.647,2.647,0,0,1,.078-.645,8.962,8.962,0,0,0-1.562.723,19.468,19.468,0,0,0-2.109,1.445q-1.25.957-1.25,1.426,0,.156.459.156a5.013,5.013,0,0,0,1.416-.322,5.05,5.05,0,0,1,1.338-.322,1.962,1.962,0,0,1,.5.039,1.707,1.707,0,0,1,.547.6,1.508,1.508,0,0,1,.293.723q0,.264-.508.693a3.6,3.6,0,0,1-1.152.654,6.851,6.851,0,0,0-.859.342Q54.67-4.3,54.67-3.437q0,1.523,2.6,1.523a6.246,6.246,0,0,0,3.34-1.055,26.408,26.408,0,0,0,2.568-1.826q1.143-.928,1.445-1.143a.94.94,0,0,1,.459-.215q.508,0,.508,1.133a5.135,5.135,0,0,1-.137,1.494,2.515,2.515,0,0,1-.781.889q-4.18,3.4-7.91,3.4A7.731,7.731,0,0,1,53.577.215a3.232,3.232,0,0,1-2.187-3.047q0-2.7,3.73-4.082a1.719,1.719,0,0,1-.957-.85,4.667,4.667,0,0,1-.215-1.66,3.881,3.881,0,0,1,1.064-2.422,8.6,8.6,0,0,1,2.607-2.1A13.224,13.224,0,0,1,63.752-15.8a3.057,3.057,0,0,1,1.309.313A.968.968,0,0,1,65.725-14.609ZM75.8-5.371l-.254.527q0,.566,1.592,1.084a11.255,11.255,0,0,0,3.5.518,17.526,17.526,0,0,0,4.189-.566A20.312,20.312,0,0,0,88.8-5.2,14.369,14.369,0,0,0,91.6-6.914q1.1-.9,1.1-1.562,0-.84-1.953-1.562a50.528,50.528,0,0,0-5.674-1.592,14.6,14.6,0,0,1-5.449-2.2,3.959,3.959,0,0,1-1.729-3.232A5.813,5.813,0,0,1,79.262-20.7a13.337,13.337,0,0,1,3.564-3.086,32.63,32.63,0,0,1,4.795-2.4,26.766,26.766,0,0,1,9.961-2.168,13.832,13.832,0,0,1,3.105.313q2.578.605,2.578,1.6a3.517,3.517,0,0,1-.176,1.357,2.254,2.254,0,0,1-.283.479,1.7,1.7,0,0,1-.273.234q-.166.117-.244.176-.859.723-4.707.9a6.561,6.561,0,0,0-1.445.137.387.387,0,0,1-.205.078q-.088,0-.205-.156a.858.858,0,0,1-.117-.508,2.909,2.909,0,0,1,.762-1.289,18.494,18.494,0,0,0-5.088,1.094,25.714,25.714,0,0,0-4.7,2.158,23.442,23.442,0,0,0-3.32,2.363q-1.328,1.162-1.328,1.641a1.111,1.111,0,0,0,.293.791q.82.879,4.551,1.836a35.146,35.146,0,0,1,5.156,1.6A18.694,18.694,0,0,1,94.076-12.4a6.641,6.641,0,0,1,1.357,1.113,4.223,4.223,0,0,1,1.191,2.773,4.969,4.969,0,0,1-.752,2.637A8.953,8.953,0,0,1,93.607-3.5a17.361,17.361,0,0,1-3.564,2.051A26.039,26.039,0,0,1,79.34.566q-4.531,0-5.781-2.4a2.586,2.586,0,0,1-.332-1.26,2.331,2.331,0,0,1,.3-1.182,2.25,2.25,0,0,1,.732-.8,2.832,2.832,0,0,1,1.191-.527Q75.8-5.605,75.8-5.371Zm35.255-19.785.8.2a.393.393,0,0,1,.313.176.552.552,0,0,1,.137.332,2.817,2.817,0,0,1-.41.84q-.41.684-.967,1.553t-.6.947q1.523-.117,2.158-.117a2.856,2.856,0,0,1,.869.088,1.4,1.4,0,0,1,.537.488,3.486,3.486,0,0,0,.557.605.744.744,0,0,1,.254.615.813.813,0,0,1-.5.693,2.691,2.691,0,0,1-1.064.342q-4.531.449-5,.469-1.582,2.422-4.424,7.549t-3.018,6.416a7.541,7.541,0,0,0-.078.957q0,.762.8.762a3.411,3.411,0,0,0,1.777-.615A14,14,0,0,0,105-4.2a18.365,18.365,0,0,1,2.344-1.953q.508,0,.508,1.758a2.24,2.24,0,0,1-.879,1.719,30.551,30.551,0,0,1-3.32,2.559,4.98,4.98,0,0,1-2.7.859,2.429,2.429,0,0,1-.547-.059A3.86,3.86,0,0,1,98.12-.459,3.359,3.359,0,0,1,97.4-2.754a9.7,9.7,0,0,1,.859-3.506,42.546,42.546,0,0,1,2.139-4.385q2.109-3.789,4.219-7.109l-.742.1q-2.266.254-2.637.254h-.176a2.764,2.764,0,0,1-1.094-.225q-.527-.225-.527-.557a.957.957,0,0,1,.283-.645,1.628,1.628,0,0,0,.342-.488q.137-.43,1.025-.957a3.494,3.494,0,0,1,1.338-.557q.449-.029.869-.049t.938-.039q.518-.02.791-.039l1.758-.078a37.953,37.953,0,0,1,2.256-3.164,9.25,9.25,0,0,1,.713-.771.752.752,0,0,1,.391-.068Zm10.9,19.023q.371,0,.449.566a8.57,8.57,0,0,1,.078,1.172,2.079,2.079,0,0,1-.117.84,9.818,9.818,0,0,1-2.48,2.666A5.853,5.853,0,0,1,116.255.684,3.316,3.316,0,0,1,114.3.049a2.529,2.529,0,0,1-.9-2.217,6.364,6.364,0,0,1,.84-3.105Q109.4.8,106.646.8A2.222,2.222,0,0,1,104.879.02a2.453,2.453,0,0,1-.674-1.611,6.731,6.731,0,0,1,.234-1.719,16.653,16.653,0,0,1,.5-1.592,18.814,18.814,0,0,1,.781-1.738q.518-1.035.771-1.5t.811-1.416q.557-.947,1.465-2.549a21.38,21.38,0,0,1,1.5-2.373,1.632,1.632,0,0,1,1.162-.781,1.283,1.283,0,0,1,1,.459,1.31,1.31,0,0,1,.43.762,13.87,13.87,0,0,1-1.309,2.637q-3.867,6.992-3.867,8.145,0,.293.215.293.938,0,4.668-4.062a37.091,37.091,0,0,0,4.316-5.205,15.649,15.649,0,0,1,1.143-1.924,4.134,4.134,0,0,1,.83-.957,4.138,4.138,0,0,1,2.168-.586,2.15,2.15,0,0,1,.332.02q.117.02.273.332a1.2,1.2,0,0,1,.156.488,23.737,23.737,0,0,1-1.553,2.91Q118.853-9.59,118.7-9.277q-2.3,4.766-2.3,6.211,0,.82.625.82a5.369,5.369,0,0,0,2.734-1.816q.586-.605,1.162-1.23a10.1,10.1,0,0,1,.713-.732A.521.521,0,0,1,121.959-6.133Zm23.009-23.145a.755.755,0,0,1,.586.234.709.709,0,0,1,.215.479,2.344,2.344,0,0,1-.381.9q-.381.654-1.748,2.852t-2.129,3.447q-4.434,7.207-6.953,12.188t-2.52,6.016v.156q0,.8.586.8a2.73,2.73,0,0,0,1.416-.547,9.227,9.227,0,0,0,1.455-1.172q.625-.625,1.26-1.3t.771-.791a.521.521,0,0,1,.352-.117q.332,0,.43.42a5.448,5.448,0,0,1,.1,1.172,2.629,2.629,0,0,1-.117.986A9.784,9.784,0,0,1,135.8-.889,5.891,5.891,0,0,1,132.155.684q-2.93,0-2.93-2.48A10.2,10.2,0,0,1,130.4-5.84a24.94,24.94,0,0,1-3.223,3.5Q124.127.313,121.881.313a2.074,2.074,0,0,1-1.846-.879,4.5,4.5,0,0,1-.6-2.529,8.463,8.463,0,0,1,1.289-3.955,17.691,17.691,0,0,1,3.213-4.15,18.916,18.916,0,0,1,4.268-3.086,9.338,9.338,0,0,1,4.316-1.24,2.376,2.376,0,0,1,1.465.762q.566-.9,2.09-3.594a92.548,92.548,0,0,1,6.328-9.844A3.014,3.014,0,0,1,144.967-29.277ZM132.8-12.93a12.422,12.422,0,0,0-5.234,2.617,14.855,14.855,0,0,0-3.633,4.17,8.479,8.479,0,0,0-1.211,2.822q0,.645.273.645,1.172,0,5.8-5.234A53.091,53.091,0,0,0,132.8-12.93Zm16.016-8.516a3.339,3.339,0,0,1-1.035,2.236,2.963,2.963,0,0,1-2.158,1.123q-1.123,0-1.123-1.172a3.265,3.265,0,0,1,.986-2.236,2.93,2.93,0,0,1,2.178-1.064,1.178,1.178,0,0,1,.84.293A1.07,1.07,0,0,1,148.816-21.445ZM145.652-4.395a2.166,2.166,0,0,1-.117.84A7.353,7.353,0,0,1,142.488-.4,7.577,7.577,0,0,1,138.855.8,3.767,3.767,0,0,1,136.2-.234a2.935,2.935,0,0,1-1.113-2.109,7.622,7.622,0,0,1,1.074-3.125q1.074-2.051,2.148-3.789a13.089,13.089,0,0,0,1.074-1.885q0-.146-.4-.576t-.4-.635q0-.205.811-1.074a13.931,13.931,0,0,1,1.973-1.719,3.555,3.555,0,0,1,1.777-.85,1.453,1.453,0,0,1,1.1.547,1.578,1.578,0,0,1,.488,1q0,.449-4.648,8.457-.059.117-.322.518t-.41.664q-.146.264-.342.635a3.078,3.078,0,0,0-.391,1.309q0,.664.9.664a3.483,3.483,0,0,0,1.865-.615,8.77,8.77,0,0,0,1.67-1.357,9.661,9.661,0,0,1,2.09-1.973Q145.652-6.152,145.652-4.395Zm11.016-10.488a1.871,1.871,0,0,1,1.2.527,2.007,2.007,0,0,1,.615,1.611,7.415,7.415,0,0,1-.762,2.813,18.329,18.329,0,0,1-2.09,3.516,29.181,29.181,0,0,1-2.92,3.359,15.319,15.319,0,0,1-3.437,2.578,7.125,7.125,0,0,1-3.35,1.006,3.187,3.187,0,0,1-2.412-.947,3.654,3.654,0,0,1-.908-2.637,10.069,10.069,0,0,1,.83-3.74,13.582,13.582,0,0,1,2.139-3.623,21.083,21.083,0,0,1,2.832-2.822q3.184-2.559,5.586-2.559a2.249,2.249,0,0,1,1.621.527.472.472,0,0,1,.2.313v.117A6.735,6.735,0,0,1,156.668-14.883Zm-1.973,2.6h-.137q-.684,0-.684-1a10.576,10.576,0,0,0-2.988,1.641,14.442,14.442,0,0,0-2.793,2.773q-2.5,3.2-2.539,5.41,0,1.094.8,1.094a5.075,5.075,0,0,0,2.383-1.055,14.132,14.132,0,0,0,3.135-3.008A23.794,23.794,0,0,0,154.2-9.814a5.428,5.428,0,0,0,.771-1.953Q154.969-12.285,154.7-12.285Z" transform="translate(704 4158.341)" fill="#0ab3e4"/>
    <path id="Path_2463" data-name="Path 2463" d="M5.016.1A4.637,4.637,0,0,1,2.742-.462,4.106,4.106,0,0,1,1.152-2,4.257,4.257,0,0,1,.576-4.2a4.257,4.257,0,0,1,.576-2.2,4.1,4.1,0,0,1,1.6-1.536A4.672,4.672,0,0,1,5.028-8.5a4.759,4.759,0,0,1,1.8.33,3.684,3.684,0,0,1,1.392.978l-.78.756a3.13,3.13,0,0,0-2.364-1,3.424,3.424,0,0,0-1.692.42A3.046,3.046,0,0,0,2.2-5.85,3.24,3.24,0,0,0,1.776-4.2,3.24,3.24,0,0,0,2.2-2.55,3.046,3.046,0,0,0,3.384-1.392a3.424,3.424,0,0,0,1.692.42A3.136,3.136,0,0,0,7.44-1.98l.78.756a3.733,3.733,0,0,1-1.4.984A4.729,4.729,0,0,1,5.016.1ZM17.952,0,16.14-2.58q-.336.024-.528.024H13.536V0h-1.2V-8.4h3.276a3.891,3.891,0,0,1,2.568.78,2.645,2.645,0,0,1,.936,2.148,2.81,2.81,0,0,1-.48,1.656,2.712,2.712,0,0,1-1.368,1L19.26,0ZM15.576-3.576a2.685,2.685,0,0,0,1.74-.492,1.712,1.712,0,0,0,.6-1.4,1.7,1.7,0,0,0-.6-1.4,2.708,2.708,0,0,0-1.74-.486h-2.04v3.78Zm13.98,2.532V0h-6.1V-8.4h5.928v1.044H24.66v2.58h4.212v1.02H24.66v2.712Zm9.7-1.056H34.788L33.864,0H32.628l3.8-8.4H37.62L41.436,0h-1.26Zm-.42-.96L37.02-7.176,35.208-3.06Zm7.5-4.3h-2.88V-8.4H50.4v1.044H47.52V0H46.332ZM54.108-8.4h1.2V0h-1.2Zm13.332,0L63.756,0H62.568l-3.7-8.4h1.3l3.024,6.9L66.24-8.4ZM77-1.044V0h-6.1V-8.4h5.928v1.044H72.108v2.58H76.32v1.02H72.108v2.712ZM86.976-8.4h3.54a5.118,5.118,0,0,1,2.364.528,3.879,3.879,0,0,1,1.6,1.482,4.187,4.187,0,0,1,.57,2.19,4.187,4.187,0,0,1-.57,2.19,3.879,3.879,0,0,1-1.6,1.482A5.118,5.118,0,0,1,90.516,0h-3.54Zm3.468,7.356a3.886,3.886,0,0,0,1.794-.4,2.863,2.863,0,0,0,1.194-1.11,3.193,3.193,0,0,0,.42-1.65,3.193,3.193,0,0,0-.42-1.65,2.863,2.863,0,0,0-1.194-1.11,3.886,3.886,0,0,0-1.794-.4H88.176v6.312Zm14.94,0V0h-6.1V-8.4h5.928v1.044h-4.728v2.58H104.7v1.02h-4.212v2.712ZM112.176.1a5.749,5.749,0,0,1-1.83-.294A3.758,3.758,0,0,1,108.96-.96L109.4-1.9a3.677,3.677,0,0,0,1.23.7,4.519,4.519,0,0,0,1.542.27,2.777,2.777,0,0,0,1.56-.354,1.091,1.091,0,0,0,.516-.942.928.928,0,0,0-.282-.7,1.886,1.886,0,0,0-.7-.414q-.414-.144-1.17-.324a12.057,12.057,0,0,1-1.53-.456,2.53,2.53,0,0,1-1-.7,1.875,1.875,0,0,1-.414-1.278,2.162,2.162,0,0,1,.354-1.212,2.432,2.432,0,0,1,1.074-.864A4.356,4.356,0,0,1,112.38-8.5a5.658,5.658,0,0,1,1.464.192,3.9,3.9,0,0,1,1.236.552l-.4.96a4.344,4.344,0,0,0-1.128-.51,4.21,4.21,0,0,0-1.176-.174,2.591,2.591,0,0,0-1.53.372,1.139,1.139,0,0,0-.51.96.918.918,0,0,0,.288.7,2,2,0,0,0,.714.42A11.156,11.156,0,0,0,112.5-4.7a11.73,11.73,0,0,1,1.524.456,2.565,2.565,0,0,1,.99.7,1.833,1.833,0,0,1,.414,1.26,2.145,2.145,0,0,1-.36,1.206,2.411,2.411,0,0,1-1.092.864A4.517,4.517,0,0,1,112.176.1Zm7.4-8.5h1.2V0h-1.2Zm11.94,4.152h1.152V-.972a4.472,4.472,0,0,1-1.452.792A5.428,5.428,0,0,1,129.492.1,4.7,4.7,0,0,1,127.2-.462,4.138,4.138,0,0,1,125.6-2a4.223,4.223,0,0,1-.582-2.2,4.255,4.255,0,0,1,.582-2.208,4.071,4.071,0,0,1,1.608-1.536,4.8,4.8,0,0,1,2.31-.552,4.872,4.872,0,0,1,1.83.33,3.736,3.736,0,0,1,1.4.966L132-6.456a3.382,3.382,0,0,0-2.436-.972,3.548,3.548,0,0,0-1.722.414,3.035,3.035,0,0,0-1.194,1.152,3.228,3.228,0,0,0-.432,1.662,3.205,3.205,0,0,0,.432,1.65,3.077,3.077,0,0,0,1.194,1.158,3.483,3.483,0,0,0,1.71.42,3.559,3.559,0,0,0,1.968-.54ZM144.588-8.4V0H143.6l-5.04-6.264V0h-1.2V-8.4h.984l5.04,6.264V-8.4Z" transform="translate(710 4175.341)" fill="#0ab3e4"/>
  </g>
</svg>
