<svg xmlns="http://www.w3.org/2000/svg" width="175.201" height="40.137" viewBox="0 0 175.201 40.137">
  <path id="Path_2461" data-name="Path 2461" d="M.586-27.461.742-27.6q3.379.156,4.609.156l9.141-.2A23.3,23.3,0,0,1,20.9-26.9a10.984,10.984,0,0,1,4.443,2.539,12.064,12.064,0,0,1,2.949,4.2A13.043,13.043,0,0,1,29.3-15.059a15.447,15.447,0,0,1-.918,5.215,15.148,15.148,0,0,1-2.607,4.619,14.26,14.26,0,0,1-3.848,3.291A13.906,13.906,0,0,1,17.6-.264a23.262,23.262,0,0,1-4.434.42q-1.523,0-5.742-.117Q6.035,0,5.586,0,4.238,0,2.324.156L2.168,0V-.645l.156-.2a10.48,10.48,0,0,0,1.318-.732A15.238,15.238,0,0,0,3.916-4.99q.107-3.271.107-4.99v-7.168L4-21.582q0-1.445-.039-2.354a7.311,7.311,0,0,0-.137-1.3,1.475,1.475,0,0,0-.225-.547.952.952,0,0,0-.41-.264,4.482,4.482,0,0,0-.967-.186L.742-26.348l-.156-.137ZM7.813-1.973a24.045,24.045,0,0,0,4.59.391,14.9,14.9,0,0,0,7.275-1.523A9.467,9.467,0,0,0,23.75-7.617,16.216,16.216,0,0,0,25.1-14.355q0-5.527-2.949-8.574t-9.3-3.047a31.614,31.614,0,0,0-5.039.391q-.156,3.2-.156,7.227v6.133L7.7-6.484Q7.7-4.8,7.813-1.973ZM34.3-13.242l-.762-.2-.156-.2v-2.422a11.413,11.413,0,0,1,6.758-2.578,7.5,7.5,0,0,1,3.73.84,5.262,5.262,0,0,1,2.148,2.1,6.215,6.215,0,0,1,.664,2.939l-.1,3.926v5.82a3.55,3.55,0,0,0,.166,1.445.854.854,0,0,0,.381.342,3.31,3.31,0,0,0,.8.146l1.113.1L49.2-.8V-.02l-.156.156Q47.618.02,46.388.02q-1.172,0-2.812.117l-.293-.273.078-3.145L39.1.039a6.014,6.014,0,0,1-2.344.449,5.9,5.9,0,0,1-2.686-.566A4.053,4.053,0,0,1,32.354-1.66a4.785,4.785,0,0,1-.6-2.461,5.711,5.711,0,0,1,1.8-4.482q1.8-1.611,9.8-2.744,0-2.891-1.289-4.072A4.917,4.917,0,0,0,38.614-16.6a6.08,6.08,0,0,0-2.061.332,2.662,2.662,0,0,0-1.064.537q-.137.205-1.055,2.393Zm9.063,3.086q-5.469.918-6.816,1.973A3.885,3.885,0,0,0,35.2-4.922q0,3.047,3.027,3.047,2.6,0,5.137-3.008Zm13.5-8.457.371.254q-.117,1.133-.176,4.023l1.465-1.855A11.38,11.38,0,0,1,59.8-17.607a4,4,0,0,1,1.3-.771,4.374,4.374,0,0,1,1.523-.273,3.822,3.822,0,0,1,1.621.352l.137.273q-.313,2.6-.352,4.57h-.879a2.621,2.621,0,0,0-2.52-1.8,3.136,3.136,0,0,0-2.109.771,3.727,3.727,0,0,0-1.2,1.934,11.919,11.919,0,0,0-.3,2.939v2.168q0,.586.078,2.871a23.066,23.066,0,0,0,.166,2.637,1,1,0,0,0,.273.518,1,1,0,0,0,.488.225q.3.059,2.783.2l.176.156v.82L60.8.156Q58.2,0,55.373,0q-2.246,0-4.687.156L50.509-.02V-.84L50.685-1q1.895-.117,2.139-.176a.894.894,0,0,0,.43-.244,1.044,1.044,0,0,0,.254-.566q.068-.381.156-2.52t.088-3.232v-3.848q0-.781-.078-2.129t-.127-1.66a.608.608,0,0,0-.3-.459,2.318,2.318,0,0,0-1.016-.146L50.588-16l-.176-.156v-.84l.156-.156A25.451,25.451,0,0,0,56.857-18.613Zm14.61-10.312.371.234q-.215,2.246-.215,9v9.16a28.957,28.957,0,0,0,2.617-1.963q1.953-1.572,4.131-3.594a23.341,23.341,0,0,0,2.236-2.2q1.66.059,1.992.059.449,0,1.816-.059l.176.176v.762l-.156.176a5.344,5.344,0,0,0-1.494.254,13.668,13.668,0,0,0-2.109,1.289q-1.592,1.094-3.76,2.871l-1.895,1.543Q76.213-10,78.8-7.412T82.991-3.4a11.511,11.511,0,0,0,2.09,1.631,2.646,2.646,0,0,0,1.035.205v.84A38.6,38.6,0,0,0,82.385.469q-2.031-1.758-2.578-2.324L78.362-3.34,76.643-5.078q-.8-.8-2.148-2.031L71.623-9.766v2.324q0,.43.078,2.764a25.467,25.467,0,0,0,.166,2.725,1.149,1.149,0,0,0,.264.566.809.809,0,0,0,.43.225q.254.049,2.109.166l.176.156v.82L74.69.156Q72.248,0,69.983,0,67.737,0,65.3.156L65.12-.02V-.84L65.3-1q1.895-.117,2.139-.176a.894.894,0,0,0,.43-.244,1.044,1.044,0,0,0,.254-.566q.068-.381.156-2.52t.088-3.232V-17.852l-.078-4.141Q68.225-24.16,68.157-25a2.673,2.673,0,0,0-.186-1,.729.729,0,0,0-.41-.234,17.583,17.583,0,0,0-2.363-.078l-.176-.176v-.82l.156-.176A24.931,24.931,0,0,0,71.467-28.926ZM92.484-18.613l.371.254q-.117,1.309-.156,3.438,1.562-1.289,2.969-2.617a3.4,3.4,0,0,1,.771-.547,6.244,6.244,0,0,1,1.2-.371,7.563,7.563,0,0,1,1.719-.2,7.172,7.172,0,0,1,2.881.605,5.738,5.738,0,0,1,2.109,1.436,4.63,4.63,0,0,1,.986,1.963,12.117,12.117,0,0,1,.273,2.793v3.438q0,.332.1,4.863.039,1.855.41,2.207A4.622,4.622,0,0,0,108.538-1l.156.156V0l-.156.156Q106.058,0,105.179,0q-.508,0-2.852.156l-.234-.215q.254-2.539.254-6.621V-9.238q0-2.3-.107-3.32a4.086,4.086,0,0,0-.654-1.846,3.7,3.7,0,0,0-1.465-1.289,4.841,4.841,0,0,0-2.187-.459,6.429,6.429,0,0,0-1.738.205,5.529,5.529,0,0,0-1.621.84,6.2,6.2,0,0,0-1.328,1.191,2.485,2.485,0,0,0-.518,1.035,14.458,14.458,0,0,0-.088,2.041v3.4q0,.43.078,2.764a25.467,25.467,0,0,0,.166,2.725,1.149,1.149,0,0,0,.264.566.809.809,0,0,0,.43.225q.254.049,2.109.166l.176.156v.82l-.156.176Q93.265,0,91,0q-2.246,0-4.687.156L86.136-.02V-.84L86.312-1q1.895-.117,2.139-.176a.894.894,0,0,0,.43-.244,1.044,1.044,0,0,0,.254-.566q.068-.381.156-2.52t.088-3.232v-3.848q0-.781-.078-2.129t-.127-1.66a.608.608,0,0,0-.3-.459,2.318,2.318,0,0,0-1.016-.146L86.214-16l-.176-.156v-.84l.156-.156A25.451,25.451,0,0,0,92.484-18.613Zm21.427-8.73a2.128,2.128,0,0,1,1.563.645,2.128,2.128,0,0,1,.645,1.563,2.105,2.105,0,0,1-.645,1.543,2.128,2.128,0,0,1-1.562.645,2.154,2.154,0,0,1-1.553-.635,2.08,2.08,0,0,1-.654-1.553,2.112,2.112,0,0,1,.654-1.562A2.137,2.137,0,0,1,113.91-27.344Zm1.66,8.73.371.254q-.215,2.559-.215,6.5v4.414q0,.43.078,2.764a25.467,25.467,0,0,0,.166,2.725,1.149,1.149,0,0,0,.264.566.809.809,0,0,0,.43.225q.254.049,2.109.166l.176.156v.82l-.156.176Q116.352,0,114.086,0,111.84,0,109.4.156l-.176-.176V-.84L109.4-1q1.895-.117,2.139-.176a.894.894,0,0,0,.43-.244,1.044,1.044,0,0,0,.254-.566q.068-.381.156-2.52t.088-3.232v-3.848q0-.781-.078-2.129t-.127-1.66a.608.608,0,0,0-.3-.459,2.318,2.318,0,0,0-1.016-.146L109.3-16l-.176-.156v-.84l.156-.156A25.451,25.451,0,0,0,115.57-18.613Zm25.1,1.348.156.352q-.8,1.23-1,1.6H136.2a4.888,4.888,0,0,1,.547,2.246,6.109,6.109,0,0,1-.635,2.7,6.463,6.463,0,0,1-1.768,2.227,9.312,9.312,0,0,1-2.568,1.465,9.143,9.143,0,0,1-3.271.547h-.9a9.179,9.179,0,0,0-1.484,1.367,1.531,1.531,0,0,0-.332.918,1.23,1.23,0,0,0,.791,1.211,9.651,9.651,0,0,0,3.271.352l4.375-.059a8.116,8.116,0,0,1,3.174.488,3.8,3.8,0,0,1,1.787,1.748,5.509,5.509,0,0,1,.684,2.666,7.788,7.788,0,0,1-1.4,4.287,8.7,8.7,0,0,1-4.033,3.252,14.311,14.311,0,0,1-5.625,1.113,13.214,13.214,0,0,1-3.193-.371A8.224,8.224,0,0,1,123,9.717,5.69,5.69,0,0,1,121.2,7.754a5.057,5.057,0,0,1-.684-2.52,5.774,5.774,0,0,1,.215-1.514,6.049,6.049,0,0,1,.82-1.709L125.083.039a4.985,4.985,0,0,1-2.139-1.045,1.853,1.853,0,0,1-.439-1.24A4.191,4.191,0,0,1,122.993-4l3.145-2.266a6.184,6.184,0,0,1-3.74-2.168,5.574,5.574,0,0,1-.967-3.164,6.934,6.934,0,0,1,.684-3.018,5.392,5.392,0,0,1,2.061-2.295,12.287,12.287,0,0,1,3.086-1.357,11.224,11.224,0,0,1,3.115-.5,7.853,7.853,0,0,1,4.648,1.582Q138.559-17.187,140.669-17.266ZM124.79-12.734a7.913,7.913,0,0,0,.469,2.559,3.939,3.939,0,0,0,1.514,2.07,4.12,4.12,0,0,0,2.354.7,4.333,4.333,0,0,0,3-1.133,4.526,4.526,0,0,0,1.26-3.535,6.152,6.152,0,0,0-1.152-3.652,3.766,3.766,0,0,0-3.262-1.621,4.116,4.116,0,0,0-2.979,1.162A4.585,4.585,0,0,0,124.79-12.734ZM130.512.371q-3.145,0-3.623.078a3.961,3.961,0,0,0-1.357.664A4.476,4.476,0,0,0,124.1,2.705a4.58,4.58,0,0,0-.557,2.256,4.486,4.486,0,0,0,1.641,3.594,6.553,6.553,0,0,0,4.375,1.387,8.431,8.431,0,0,0,3.789-.859,5.831,5.831,0,0,0,2.568-2.3A5.578,5.578,0,0,0,136.743,4a3.747,3.747,0,0,0-.693-2.275,2.8,2.8,0,0,0-1.8-1.152A23.339,23.339,0,0,0,130.512.371Zm16.7-29.3.371.234q-.215,2.246-.215,9v4.824q1.641-1.348,3.047-2.676a3.3,3.3,0,0,1,.781-.547,6.569,6.569,0,0,1,1.2-.371,7.437,7.437,0,0,1,1.709-.2,7.172,7.172,0,0,1,2.881.605,5.738,5.738,0,0,1,2.109,1.436,4.63,4.63,0,0,1,.986,1.963,12.116,12.116,0,0,1,.273,2.793v3.438q0,.332.1,4.863a4.014,4.014,0,0,0,.42,2.207A4.559,4.559,0,0,0,163.287-1l.156.156V0l-.156.156Q160.806,0,159.927,0q-.449,0-2.852.156l-.234-.215Q157.1-2.6,157.1-6.68V-9.238q0-2.3-.107-3.32a4.086,4.086,0,0,0-.654-1.846,3.717,3.717,0,0,0-1.455-1.289,4.827,4.827,0,0,0-2.2-.459,5.916,5.916,0,0,0-2.217.361,6.019,6.019,0,0,0-1.807,1.221,3.934,3.934,0,0,0-1.1,1.436,8.58,8.58,0,0,0-.186,2.217v3.477q0,.43.078,2.764a25.464,25.464,0,0,0,.166,2.725,1.149,1.149,0,0,0,.264.566.809.809,0,0,0,.43.225q.254.049,2.109.166l.176.156v.82l-.156.176Q147.994,0,145.728,0q-2.246,0-4.687.156l-.176-.176V-.84L141.041-1q1.895-.117,2.139-.176a.894.894,0,0,0,.43-.244,1.044,1.044,0,0,0,.254-.566q.068-.381.156-2.52t.088-3.232V-17.852l-.078-4.141Q143.97-24.16,143.9-25a2.674,2.674,0,0,0-.186-1,.729.729,0,0,0-.41-.234,17.583,17.583,0,0,0-2.363-.078l-.176-.176v-.82l.156-.176A24.931,24.931,0,0,0,147.212-28.926Zm16.739,13.594v-.508l.137-.2a27.634,27.634,0,0,0,2.969-1.27q0-5.1-.117-5.937a16.86,16.86,0,0,0,3.3-1.5l.469.391q-.2,1.23-.469,7.148.977.02,2.109.02a32.075,32.075,0,0,0,3.3-.117l.137.137-.371,1.641-.156.176q-1-.02-2.207-.02-1.094,0-2.812.02L170.123-7.4a31.225,31.225,0,0,0,.127,3.6,2.047,2.047,0,0,0,.7,1.328,2.622,2.622,0,0,0,1.709.479,4.543,4.543,0,0,0,2.422-.684l.469.7q-.469.332-2.246,1.953a4.894,4.894,0,0,1-2.07.469q-4.395,0-4.395-4.258,0-1.563.078-2.656.02-.332.02-.684v-8.105h-.8q-.879,0-2.012.078Z" transform="translate(-0.586 28.926)" fill="#0ab3e4"/>
</svg>
