<svg xmlns="http://www.w3.org/2000/svg" width="124.146" height="42.48" viewBox="0 0 124.146 42.48">
  <path id="Path_2464" data-name="Path 2464" d="M2.5,0V-35h5v15L15-35h6.25L13.73-21.25,22.5,0H16.25L10-16.25l-2.5,5V0ZM23.536-28.75v-5h5v5Zm0,28.75V-25h5V0Zm8.985,0V-25h5v2.7q1.113-1.016,1.816-1.553a7.949,7.949,0,0,1,1.943-1.016,7.288,7.288,0,0,1,2.646-.479,3.247,3.247,0,0,1,2.6,1.172,4.282,4.282,0,0,1,1,2.871V0h-5V-18.75a3.727,3.727,0,0,0-.371-1.9,1.641,1.641,0,0,0-1.5-.6,3.31,3.31,0,0,0-1.279.264,4.94,4.94,0,0,0-.947.488q-.312.225-.9.713V0Zm22.11-16.25q0,5.313,3.125,5.313t3.125-5.312a13.355,13.355,0,0,0-.137-1.982,8.522,8.522,0,0,0-.469-1.777,3.058,3.058,0,0,0-.977-1.367,2.449,2.449,0,0,0-1.543-.5,2.479,2.479,0,0,0-1.562.5,2.993,2.993,0,0,0-.967,1.367,8.918,8.918,0,0,0-.459,1.777A13.355,13.355,0,0,0,54.631-16.25ZM59.006,3.789q.527,0,.947-.02t.967-.078a4.881,4.881,0,0,0,.947-.186,4.385,4.385,0,0,0,.762-.322,1.427,1.427,0,0,0,.557-.518,1.385,1.385,0,0,0,.2-.732q0-2.09-4-2.559l-4.121-.488a4.38,4.38,0,0,0-1.3,1.582,4.646,4.646,0,0,0-.537,2.168.75.75,0,0,0,.215.537,1.368,1.368,0,0,0,.635.342q.42.117.859.2a7.429,7.429,0,0,0,1.045.1q.605.02,1.035.02t1.006-.02Q58.791,3.789,59.006,3.789Zm0,3.691q-.937,0-1.523-.01t-1.6-.049a14.928,14.928,0,0,1-1.7-.146Q53.5,7.168,52.62,7a6.049,6.049,0,0,1-1.455-.439,7.508,7.508,0,0,1-1.1-.645,2.393,2.393,0,0,1-.791-.908,2.689,2.689,0,0,1-.264-1.2A5.39,5.39,0,0,1,50.051.469a7.463,7.463,0,0,1,2.705-2.207A5.109,5.109,0,0,1,51-2.568a1.651,1.651,0,0,1-.742-1.357,3.418,3.418,0,0,1,.078-.7A6.7,6.7,0,0,1,50.51-5.3,4.069,4.069,0,0,1,50.823-6q.215-.391.342-.615a6.955,6.955,0,0,1,.42-.625l.4-.547q.107-.146.42-.527t.352-.439a11.243,11.243,0,0,1-2.5-7.5,12.279,12.279,0,0,1,.82-4.629,7.178,7.178,0,0,1,2.549-3.252,6.976,6.976,0,0,1,4.131-1.221,6.846,6.846,0,0,1,2.422.391,5.213,5.213,0,0,1,1.689.986A7.8,7.8,0,0,1,63.147-22.4a5.006,5.006,0,0,1,4.219-2.93h.391v4.082h-.312q-.84,0-1.27.02a4.35,4.35,0,0,0-.957.166,1.867,1.867,0,0,0-.84.459,9.663,9.663,0,0,1,.615,2.021,11.444,11.444,0,0,1,.264,2.334,12.586,12.586,0,0,1-.791,4.629A6.946,6.946,0,0,1,61.946-8.4a7.117,7.117,0,0,1-4.189,1.211l-2.52-.293a2.522,2.522,0,0,1-.2.342q-.156.244-.244.4a2.189,2.189,0,0,0-.166.4,1.509,1.509,0,0,0-.078.459,1.034,1.034,0,0,0,.488.859,3.409,3.409,0,0,0,1.348.518q.859.166,1.65.244t1.768.127q.977.049,1.348.107,1.113.156,1.982.361a10.758,10.758,0,0,1,1.777.6,5.147,5.147,0,0,1,1.494.938,4.244,4.244,0,0,1,.967,1.406,4.825,4.825,0,0,1,.381,1.973,5.941,5.941,0,0,1-.479,2.441A5.069,5.069,0,0,1,66,5.469a6.731,6.731,0,0,1-1.934,1.162,10.736,10.736,0,0,1-2.383.654A17.347,17.347,0,0,1,59.006,7.48ZM74.925.352a6.752,6.752,0,0,1-4.951-1.836A9.557,9.557,0,0,1,67.425-6.25l3.75-1.25q1.348,3.75,3.75,3.75A2.5,2.5,0,0,0,76.771-4.4a2.5,2.5,0,0,0,.654-1.846,3.766,3.766,0,0,0-1.25-2.891l-5-3.75a14.009,14.009,0,0,1-1.406-1.064,10.056,10.056,0,0,1-1.152-1.221,5.176,5.176,0,0,1-.889-1.621,6.081,6.081,0,0,1-.3-1.953,6.017,6.017,0,0,1,2.041-4.9,8.261,8.261,0,0,1,5.459-1.7,7.906,7.906,0,0,1,2.93.518,6.037,6.037,0,0,1,2.2,1.455,8.71,8.71,0,0,1,1.465,2.08,11.523,11.523,0,0,1,.908,2.549l-3.75,1.25a11.961,11.961,0,0,0-.547-1.279,8.548,8.548,0,0,0-.732-1.162,3.316,3.316,0,0,0-1.084-.967,2.842,2.842,0,0,0-1.387-.342,2.5,2.5,0,0,0-1.846.654,2.5,2.5,0,0,0-.654,1.846,2.648,2.648,0,0,0,1.25,2.109l5,3.75a14.645,14.645,0,0,1,1.436,1.279,11.582,11.582,0,0,1,1.162,1.426,6.167,6.167,0,0,1,.859,1.807,7.511,7.511,0,0,1,.293,2.129,6.017,6.017,0,0,1-2.041,4.9A8.261,8.261,0,0,1,74.925.352Zm16.68,0a5.469,5.469,0,0,1-4.287-1.5A6.815,6.815,0,0,1,85.941-5.7V-21.25h-2.5V-25h2.5v-8.75h5V-25h3.75v3.75h-3.75V-6.66a4.542,4.542,0,0,0,.41,2.207,1.761,1.761,0,0,0,1.66.7,10.973,10.973,0,0,0,1.68-.2V.117A25.819,25.819,0,0,1,91.605.352ZM104.4-3.75a1.906,1.906,0,0,0,1.025-.312,3.36,3.36,0,0,0,.752-.605q.254-.293.625-.781a.756.756,0,0,1,.1-.137V-12.5q-.313.215-1.035.664t-1.152.732a12.69,12.69,0,0,0-1.035.781,5.327,5.327,0,0,0-.937.957,4.893,4.893,0,0,0-.586,1.123,3.85,3.85,0,0,0-.254,1.387Q101.9-3.75,104.4-3.75Zm-2.5,4.1a4.4,4.4,0,0,1-3.545-1.807A6.323,6.323,0,0,1,96.9-5.527a8.543,8.543,0,0,1,.615-3.3,10.534,10.534,0,0,1,1.3-2.373,8.052,8.052,0,0,1,2.285-1.836,23.512,23.512,0,0,1,2.422-1.3q.82-.352,2.852-1.152.352-.137.527-.215v-1.8a6.648,6.648,0,0,0-.527-2.939,2,2,0,0,0-1.973-1.045,2.009,2.009,0,0,0-1.846.889,5.1,5.1,0,0,0-.635,2.451q-.02.215-.02.645h-5a8.226,8.226,0,0,1,2.012-5.723,7.112,7.112,0,0,1,5.488-2.129,7.13,7.13,0,0,1,5.5,2.158,8.038,8.038,0,0,1,2,5.693V-6.25A24.388,24.388,0,0,0,112.544,0h-4.98L106.9-3.75q-.391.781-.635,1.211a11.177,11.177,0,0,1-.713,1.064,4.514,4.514,0,0,1-.937.977,4.686,4.686,0,0,1-1.172.6A4.513,4.513,0,0,1,101.9.352ZM115.4,0V-25h5v3.34a7.59,7.59,0,0,1,2.217-2.588,5.222,5.222,0,0,1,3.232-1.1q.059,0,.8.078v5.527a7.511,7.511,0,0,0-2.773-.547,3.446,3.446,0,0,0-2.52.938,3.316,3.316,0,0,0-.957,2.48V0Z" transform="translate(-2.5 35)" fill="#0ab3e4"/>
</svg>
