<svg xmlns="http://www.w3.org/2000/svg" width="106.84" height="27.931" viewBox="0 0 106.84 27.931">
  <path id="Path_2465" data-name="Path 2465" d="M25.76-.96V-24L16.8-11.56a.894.894,0,0,1-.8.44h-.08a.93.93,0,0,1-.84-.44L6.12-23.96v23a.926.926,0,0,1-.28.68A.926.926,0,0,1,5.16,0a.994.994,0,0,1-.7-.28.9.9,0,0,1-.3-.68V-26.88a.881.881,0,0,1,.4-.76l.08-.08A.9.9,0,0,1,6-27.48l9.96,13.8,9.92-13.8a.827.827,0,0,1,.62-.38,1.068,1.068,0,0,1,.74.14,1.24,1.24,0,0,1,.44.84V-.96a.926.926,0,0,1-.28.68.926.926,0,0,1-.68.28.926.926,0,0,1-.68-.28A.926.926,0,0,1,25.76-.96ZM36.28-8V-18.68a.926.926,0,0,1,.28-.68.926.926,0,0,1,.68-.28.926.926,0,0,1,.68.28.926.926,0,0,1,.28.68V-8a5.826,5.826,0,0,0,1.76,4.28,5.923,5.923,0,0,0,4.24,1.8,6.037,6.037,0,0,0,4.3-1.8A5.793,5.793,0,0,0,50.28-8V-18.68a.9.9,0,0,1,.3-.68.994.994,0,0,1,.7-.28.926.926,0,0,1,.68.28.926.926,0,0,1,.28.68V-8A7.71,7.71,0,0,1,49.9-2.34,7.71,7.71,0,0,1,44.24,0,7.644,7.644,0,0,1,38.6-2.34,7.744,7.744,0,0,1,36.28-8Zm26,7.2a.9.9,0,0,1-.92.8h-.24a.968.968,0,0,1-.64-.52.163.163,0,0,1-.04-.12L60.4-.72V-18.6a.926.926,0,0,1,.28-.68.926.926,0,0,1,.68-.28.861.861,0,0,1,.66.28.963.963,0,0,1,.26.68v1.88a7.325,7.325,0,0,1,5.86-2.84,7.925,7.925,0,0,1,5.84,2.34,7.664,7.664,0,0,1,2.34,5.62V-.96a.926.926,0,0,1-.28.68.926.926,0,0,1-.68.28.926.926,0,0,1-.68-.28.926.926,0,0,1-.28-.68V-11.6a5.845,5.845,0,0,0-1.76-4.26,5.77,5.77,0,0,0-4.26-1.78,5.8,5.8,0,0,0-4.26,1.76,6.117,6.117,0,0,0-1.84,4.28ZM84.16-.96V-18.64a.926.926,0,0,1,.28-.68.95.95,0,0,1,.7-.28.95.95,0,0,1,.7.28.926.926,0,0,1,.28.68V-.96a.9.9,0,0,1-.3.68.994.994,0,0,1-.7.28.926.926,0,0,1-.68-.28A.926.926,0,0,1,84.16-.96Zm0-23.16v-.92a.926.926,0,0,1,.28-.68.926.926,0,0,1,.68-.28.994.994,0,0,1,.7.28.9.9,0,0,1,.3.68v.92a1,1,0,0,1-.3.74.959.959,0,0,1-.7.3.9.9,0,0,1-.68-.3A1.044,1.044,0,0,1,84.16-24.12Zm25.2,4.8a.926.926,0,0,1,.68-.28.926.926,0,0,1,.68.28.926.926,0,0,1,.28.68V-.96a.926.926,0,0,1-.28.68.926.926,0,0,1-.68.28.926.926,0,0,1-.68-.28.926.926,0,0,1-.28-.68V-3.88a9.283,9.283,0,0,1-3.22,2.84A8.633,8.633,0,0,1,101.72,0a8.7,8.7,0,0,1-6.56-2.88A9.721,9.721,0,0,1,92.44-9.8a9.721,9.721,0,0,1,2.72-6.92,8.7,8.7,0,0,1,6.56-2.88,8.633,8.633,0,0,1,4.14,1.04,9.446,9.446,0,0,1,3.22,2.8v-2.88A.926.926,0,0,1,109.36-19.32Zm-15,9.52a7.815,7.815,0,0,0,2.18,5.58,6.92,6.92,0,0,0,5.2,2.3,6.858,6.858,0,0,0,5.18-2.3,7.854,7.854,0,0,0,2.16-5.58,7.925,7.925,0,0,0-2.16-5.6,6.832,6.832,0,0,0-5.18-2.32,6.894,6.894,0,0,0-5.2,2.32A7.884,7.884,0,0,0,94.36-9.8Z" transform="translate(-4.16 27.931)" fill="#0ab3e4"/>
</svg>
